<?xml version="1.0" standalone="no"?>
<!DOCTYPE svg PUBLIC "-//W3C//DTD SVG 20010904//EN"
 "http://www.w3.org/TR/2001/REC-SVG-20010904/DTD/svg10.dtd">
<svg version="1.0" xmlns="http://www.w3.org/2000/svg"
 width="1000.000000pt" height="1000.000000pt" viewBox="0 0 1000.000000 1000.000000"
 preserveAspectRatio="xMidYMid meet">

<g transform="translate(0.000000,1000.000000) scale(0.100000,-0.100000)"
fill="#000000" stroke="none">
<path d="M4825 7759 c-89 -12 -231 -49 -332 -88 -306 -119 -578 -377 -727
-691 -169 -358 -167 -794 5 -1157 154 -324 458 -593 800 -707 148 -49 230 -61
429 -61 259 0 394 31 615 140 138 68 223 131 350 259 611 612 498 1628 -233
2101 -266 171 -590 244 -907 204z m437 -313 c298 -76 549 -276 687 -546 93
-182 128 -341 118 -544 -7 -142 -31 -249 -85 -373 -56 -131 -122 -225 -236
-338 -208 -205 -452 -305 -746 -305 -294 0 -538 100 -746 305 -206 204 -307
428 -321 711 -10 203 25 362 118 544 155 303 451 515 795 570 103 16 307 4
416 -24z"/>
<path d="M2190 6658 c-52 -3 -117 -11 -145 -17 -361 -82 -666 -339 -794 -669
-193 -502 -20 -1049 427 -1340 348 -227 807 -236 1158 -24 91 55 111 70 216
171 137 131 243 314 295 506 24 90 27 117 27 275 0 158 -3 185 -27 273 -92
344 -335 620 -661 751 -167 68 -302 88 -496 74z m239 -299 c154 -24 316 -114
438 -243 86 -90 143 -184 184 -307 29 -85 32 -105 32 -214 0 -109 -4 -131 -37
-244 -21 -68 -46 -141 -56 -161 -35 -69 -118 -185 -146 -205 -16 -11 -43 -34
-59 -51 -31 -32 -147 -103 -218 -134 -69 -30 -195 -51 -308 -52 -450 -1 -823
398 -796 852 15 249 128 462 326 612 181 137 395 186 640 147z"/>
<path d="M7623 6659 c-268 -23 -508 -140 -699 -341 -130 -137 -222 -301 -271
-485 -24 -88 -27 -115 -27 -273 0 -158 3 -185 27 -275 54 -203 160 -379 317
-528 212 -202 459 -299 755 -299 258 0 457 68 675 230 58 43 126 103 151 133
50 59 133 179 124 179 -3 0 9 28 26 61 17 34 32 69 35 78 2 9 13 43 24 76 66
189 82 438 37 606 -34 131 -77 229 -145 334 -225 349 -613 538 -1029 504z
m293 -309 c289 -67 515 -289 593 -585 20 -73 7 -296 -19 -345 -4 -8 -11 -32
-14 -54 -12 -75 -107 -269 -179 -365 -92 -124 -186 -189 -314 -217 -37 -8
-138 -17 -224 -21 -128 -5 -169 -3 -235 12 -152 33 -273 104 -390 228 -88 92
-143 183 -186 307 -31 91 -33 101 -33 250 0 149 2 159 33 249 42 122 98 216
180 303 148 156 319 241 520 257 109 8 165 4 268 -19z"/>
<path d="M4805 4579 c-356 -31 -707 -152 -1005 -347 -143 -93 -246 -177 -371
-304 -59 -60 -110 -108 -113 -108 -4 0 -33 18 -65 39 -152 104 -357 193 -546
239 -173 42 -306 56 -492 49 -233 -8 -396 -43 -616 -132 -632 -255 -1086 -907
-1091 -1567 -1 -142 8 -166 75 -200 32 -17 265 -18 4442 -18 2989 0 4414 3
4427 10 35 19 54 111 47 235 -42 754 -558 1398 -1292 1610 -142 41 -248 57
-418 62 -374 13 -708 -77 -1015 -274 -45 -29 -85 -53 -89 -53 -3 0 -54 48
-112 108 -59 59 -143 136 -186 171 -443 357 -1009 529 -1580 480z m360 -289
c471 -43 907 -252 1217 -583 l76 -82 -63 -71 c-240 -268 -366 -533 -421 -885
-9 -57 -18 -114 -20 -126 l-4 -23 -949 0 c-1045 0 -961 -5 -961 60 0 54 -41
242 -76 349 -70 214 -200 442 -353 618 l-71 82 103 103 c404 405 961 609 1522
558z m-2587 -455 c175 -39 410 -143 557 -246 111 -79 271 -238 348 -346 138
-194 234 -433 265 -661 l9 -62 -1479 0 -1478 0 0 26 c0 43 38 216 66 300 83
248 248 493 441 656 210 177 449 290 713 338 87 16 137 19 295 15 123 -2 216
-10 263 -20z m5375 5 c448 -65 847 -343 1074 -747 78 -140 152 -365 169 -512
l7 -61 -1481 0 -1481 0 5 33 c29 167 52 258 97 371 86 221 243 437 422 585
226 186 451 293 685 326 114 16 408 18 503 5z"/>
</g>
</svg>
