<?xml version="1.0" encoding="UTF-8"?>
<svg version="1.1" xmlns="http://www.w3.org/2000/svg" width="1200" height="1200">
<path d="M0 0 C2.86096492 2.43767817 5.77339179 4.79518512 8.70703125 7.14453125 C12.9448965 10.58895003 16.82124664 14.23720747 20.59375 18.18359375 C22.5727249 20.13967142 24.58574708 21.9509014 26.69140625 23.765625 C31.16058074 27.64310011 35.34845175 31.76330335 39.51953125 35.95703125 C40.23560547 36.66923828 40.95167969 37.38144531 41.68945312 38.11523438 C45.74190428 42.17506033 49.61547752 46.33252315 53.36010742 50.67749023 C55.62324663 53.28800626 57.97715915 55.80390279 60.33203125 58.33203125 C65.44627296 63.87596748 70.2609544 69.61543463 74.95703125 75.51953125 C75.36356934 76.02645508 75.77010742 76.53337891 76.18896484 77.05566406 C88.17619872 92.01112182 99.5608712 107.41472957 109.95703125 123.51953125 C110.40723633 124.20885742 110.85744141 124.89818359 111.32128906 125.60839844 C157.58011561 196.5343717 187.44727803 278.40903483 198.26953125 372.58203125 C198.35093353 373.35474365 198.43233582 374.12745605 198.51620483 374.92358398 C200.44578891 393.53962552 201.16544484 412.05671255 201.14453125 430.76953125 C201.143927 431.77631927 201.14332275 432.7831073 201.1427002 433.82040405 C201.0044843 519.11394099 181.35490066 602.09282302 93.95703125 762.51953125 C93.22097656 763.51984375 92.48492188 764.52015625 91.7265625 765.55078125 C79.80943444 781.58090041 67.2389115 796.95335626 53.65625 811.6015625 C51.87634066 813.5257192 50.10778528 815.46044995 48.3515625 817.40625 C39.08551699 827.65775382 29.53545031 837.86972945 18.96484375 846.79296875 C16.82726956 848.6311162 14.76010651 850.53765889 12.69458008 852.45605469 C6.64570669 858.06953115 0.41792158 863.38058461 -6.04296875 868.51953125 C-6.54989258 868.92606934 -7.05681641 869.33260742 -7.57910156 869.75146484 C-73.78244099 922.81536473 -150.41391612 960.66446081 -303.04296875 991.83203125 C-303.81141113 991.91343353 -304.57985352 991.99483582 -305.37158203 992.07870483 C-323.99724418 994.01988 -342.57128572 994.72918102 -361.29296875 994.70703125 C-362.24829498 994.706427 -363.20362122 994.70582275 -364.18789673 994.7052002 C-422.870673 994.60524511 -480.09242448 985.15602628 -536.04296875 967.51953125 C-537.44603271 967.08737305 -537.44603271 967.08737305 -538.87744141 966.64648438 C-566.28781036 958.19663256 -592.46715202 946.39962845 -618.04296875 933.51953125 C-619.07244629 933.00535645 -620.10192383 932.49118164 -621.16259766 931.96142578 C-665.16679173 909.90549879 -706.0521153 880.66760879 -742.125 847.21875 C-744.0491567 845.43884066 -745.98388745 843.67028528 -747.9296875 841.9140625 C-758.18119132 832.64801699 -768.39316695 823.09795031 -777.31640625 812.52734375 C-779.1545537 810.38976956 -781.06109639 808.32260651 -782.97949219 806.25708008 C-788.59296865 800.20820669 -793.90402211 793.98042158 -799.04296875 787.51953125 C-799.44950684 787.01260742 -799.85604492 786.50568359 -800.27490234 785.98339844 C-853.33880223 719.78005901 -891.18789831 643.14858388 -922.35546875 490.45703125 C-922.43687103 489.68431885 -922.51827332 488.91160645 -922.60214233 488.11547852 C-924.53172641 469.49943698 -925.25138234 450.98234995 -925.23046875 432.26953125 C-925.2298645 431.26274323 -925.22926025 430.2559552 -925.2286377 429.21865845 C-925.09049769 343.97195852 -905.53454326 260.74071594 -793.56640625 69.48046875 C-791.10843057 66.59634249 -788.72751891 63.66197429 -786.35546875 60.70703125 C-783.1612858 56.77835703 -779.83242607 53.14863853 -776.16015625 49.6640625 C-774.31063816 47.79065765 -772.60584245 45.87357064 -770.890625 43.87890625 C-766.67394177 39.02355251 -762.1618875 34.49173553 -757.60546875 29.95703125 C-756.79787109 29.14556641 -755.99027344 28.33410156 -755.15820312 27.49804688 C-750.83920405 23.18600832 -746.4461155 19.02925924 -741.81860352 15.05004883 C-739.40495468 12.96959172 -737.0709486 10.80665416 -734.73046875 8.64453125 C-729.32803559 3.7244582 -723.75382118 -0.92401888 -718.04296875 -5.48046875 C-717.53459473 -5.88845703 -717.0262207 -6.29644531 -716.50244141 -6.71679688 C-701.54818975 -18.70215611 -686.14598286 -30.08546263 -670.04296875 -40.48046875 C-669.35364258 -40.93067383 -668.66431641 -41.38087891 -667.95410156 -41.84472656 C-601.14121897 -85.42094279 -524.84564109 -114.12492099 0 0 Z M-104.66398621 99.88830566 C-105.28791763 100.51942261 -105.91184906 101.15053955 -106.5546875 101.80078125 C-107.20113724 102.44768921 -107.84758698 103.09459717 -108.5136261 103.7611084 C-109.88702232 105.13753325 -111.25797978 106.51639507 -112.62670898 107.89746094 C-114.69930479 109.98809604 -116.77957162 112.07083469 -118.86132812 114.15234375 C-120.19708324 115.49302281 -121.53238353 116.83415521 -122.8671875 118.17578125 C-123.78790291 119.09816589 -123.78790291 119.09816589 -124.72721863 120.03918457 C-128.41996121 123.77161318 -131.90834153 127.62884735 -135.34333801 131.59875488 C-137.90691357 134.49588732 -140.63086887 137.21287752 -143.38671875 139.92578125 C-143.95950562 140.49478149 -144.53229248 141.06378174 -145.12243652 141.65002441 C-147.53236157 144.04385811 -149.94831353 146.43157368 -152.36376953 148.81982422 C-160.1811321 156.4546441 -160.1811321 156.4546441 -167.54296875 164.51953125 C-173.35967672 171.36229206 -179.98268405 177.51060938 -186.36376953 183.81982422 C-194.1811321 191.4546441 -194.1811321 191.4546441 -201.54296875 199.51953125 C-207.35967672 206.36229206 -213.98268405 212.51060938 -220.36376953 218.81982422 C-228.1811321 226.4546441 -228.1811321 226.4546441 -235.54296875 234.51953125 C-241.35967672 241.36229206 -247.98268405 247.51060938 -254.36376953 253.81982422 C-262.1811321 261.4546441 -262.1811321 261.4546441 -269.54296875 269.51953125 C-275.35967672 276.36229206 -281.98268405 282.51060938 -288.36376953 288.81982422 C-296.1811321 296.4546441 -296.1811321 296.4546441 -303.54296875 304.51953125 C-309.35967672 311.36229206 -315.98268405 317.51060938 -322.36376953 323.81982422 C-330.1811321 331.4546441 -330.1811321 331.4546441 -337.54296875 339.51953125 C-343.35967672 346.36229206 -349.98268405 352.51060938 -356.36376953 358.81982422 C-364.1811321 366.4546441 -364.1811321 366.4546441 -371.54296875 374.51953125 C-377.35967672 381.36229206 -383.98268405 387.51060938 -390.36376953 393.81982422 C-398.1811321 401.4546441 -398.1811321 401.4546441 -405.54296875 409.51953125 C-411.35967672 416.36229206 -417.98268405 422.51060938 -424.36376953 428.81982422 C-432.1811321 436.4546441 -432.1811321 436.4546441 -439.54296875 444.51953125 C-445.35967672 451.36229206 -451.98268405 457.51060938 -458.36376953 463.81982422 C-467.17056179 472.52017995 -467.17056179 472.52017995 -475.45947266 481.70898438 C-478.46294029 485.14310648 -481.73535149 488.31581392 -484.98046875 491.51953125 C-485.66431641 492.19886719 -486.34816406 492.87820313 -487.05273438 493.578125 C-488.71384034 495.22761484 -490.37725388 496.87469805 -492.04296875 498.51953125 C-494.83489241 497.24486082 -496.88378506 495.92799156 -499.0480957 493.75732422 C-499.60580154 493.20269501 -500.16350739 492.6480658 -500.7381134 492.07662964 C-501.32984848 491.47770905 -501.92158356 490.87878845 -502.53125 490.26171875 C-503.1526738 489.63983673 -503.7740976 489.01795471 -504.41435242 488.37722778 C-505.72872291 487.05983911 -507.040665 485.74002374 -508.3503418 484.41796875 C-510.33273779 482.41746979 -512.32286393 480.42493612 -514.31445312 478.43359375 C-519.77800744 472.95428489 -525.17551168 467.48924012 -530.18823242 461.59033203 C-534.89185382 456.33877 -540.03022396 451.47346731 -545.04296875 446.51953125 C-557.82697331 433.88550664 -557.82697331 433.88550664 -561.51171875 429.55078125 C-566.79362202 423.34519539 -572.75276301 417.74452148 -578.54296875 412.01953125 C-591.94293645 398.77048836 -591.94293645 398.77048836 -597.17822266 392.61132812 C-601.70785191 387.53017293 -606.6495739 382.81266804 -611.48046875 378.01953125 C-612.60505205 376.89997493 -613.7294028 375.78018496 -614.85351562 374.66015625 C-617.58066219 371.94391591 -620.31092782 369.23084833 -623.04296875 366.51953125 C-626.34288984 367.96142406 -628.52126051 369.74959204 -631.05786133 372.29150391 C-631.83579544 373.06636139 -632.61372955 373.84121887 -633.41523743 374.63955688 C-634.24758408 375.47908905 -635.07993073 376.31862122 -635.9375 377.18359375 C-637.23587044 378.48265152 -637.23587044 378.48265152 -638.56047058 379.80795288 C-640.39270095 381.64320485 -642.22249975 383.48088712 -644.05004883 385.32080078 C-646.82912966 388.11802024 -649.61601024 390.90727255 -652.40429688 393.6953125 C-654.1866682 395.48260405 -655.96858383 397.27035018 -657.75 399.05859375 C-658.57627396 399.88598053 -659.40254791 400.71336731 -660.25386047 401.56582642 C-663.7685875 405.10903161 -667.21733668 408.66212724 -670.4675293 412.45068359 C-674.44936352 417.07206439 -678.75739813 421.34724023 -683.08813477 425.63986206 C-684.58011118 427.11885034 -686.06874428 428.60113627 -687.55664062 430.08422852 C-691.24965029 433.76400512 -694.94813987 437.43825752 -698.64648438 441.1126709 C-701.78367179 444.22998754 -704.91870477 447.34944213 -708.05102539 450.47164917 C-709.50394783 451.91818194 -710.95989156 453.36162292 -712.41601562 454.80493164 C-716.9280965 459.30041208 -721.2849245 463.84619995 -725.43118286 468.68066406 C-728.1036578 471.72965867 -730.97289795 474.57289609 -733.8515625 477.42578125 C-734.46314713 478.03595093 -735.07473175 478.64612061 -735.70484924 479.27478027 C-737.62768677 481.1920929 -739.55399969 483.10586827 -741.48046875 485.01953125 C-742.79775934 486.3317971 -744.11481861 487.6442952 -745.43164062 488.95703125 C-748.63275485 492.14721631 -751.8369874 495.33423776 -755.04296875 498.51953125 C-751.87312069 502.27233987 -748.71379494 505.9797338 -745.203125 509.421875 C-744.53216797 510.08509766 -743.86121094 510.74832031 -743.16992188 511.43164062 C-741.79756299 512.77803245 -740.42516737 514.12438684 -739.05273438 515.47070312 C-735.8712313 518.61560214 -732.78079431 521.7703501 -729.8828125 525.1796875 C-724.46789288 531.46726263 -718.43950968 537.1894035 -712.54296875 543.01953125 C-699.22766488 556.18486388 -699.22766488 556.18486388 -693.97070312 562.36914062 C-689.08356675 567.82074868 -683.74754513 572.8735744 -678.54296875 578.01953125 C-665.22766488 591.18486388 -665.22766488 591.18486388 -659.97070312 597.36914062 C-655.08356675 602.82074868 -649.74754513 607.8735744 -644.54296875 613.01953125 C-631.22766488 626.18486388 -631.22766488 626.18486388 -625.97070312 632.36914062 C-621.08356675 637.82074868 -615.74754513 642.8735744 -610.54296875 648.01953125 C-597.22766488 661.18486388 -597.22766488 661.18486388 -591.97070312 667.36914062 C-587.08356675 672.82074868 -581.74754513 677.8735744 -576.54296875 683.01953125 C-563.22766488 696.18486388 -563.22766488 696.18486388 -557.97070312 702.36914062 C-553.08356675 707.82074868 -547.74754513 712.8735744 -542.54296875 718.01953125 C-529.22592496 731.1865842 -529.22592496 731.1865842 -523.99267578 737.34277344 C-518.99167834 742.926156 -513.54741534 748.11460005 -508.23046875 753.39453125 C-506.97828159 754.64169215 -505.72632662 755.88908622 -504.47460938 757.13671875 C-502.1969834 759.40622474 -499.91811769 761.67446749 -497.63745117 763.94091797 C-496.10391687 765.46507242 -494.57182032 766.99067968 -493.04296875 768.51953125 C-489.46502423 764.96653753 -485.89055489 761.41009474 -482.3190918 757.85058594 C-481.10679627 756.6432806 -479.89360005 755.43687891 -478.67944336 754.23144531 C-470.88965966 746.58599371 -470.88965966 746.58599371 -463.546875 738.51953125 C-457.72591073 731.67919848 -451.10395316 725.52914496 -444.72216797 719.21923828 C-436.9048054 711.5844184 -436.9048054 711.5844184 -429.54296875 703.51953125 C-423.72626078 696.67677044 -417.10325345 690.52845312 -410.72216797 684.21923828 C-402.9048054 676.5844184 -402.9048054 676.5844184 -395.54296875 668.51953125 C-389.72626078 661.67677044 -383.10325345 655.52845312 -376.72216797 649.21923828 C-368.9048054 641.5844184 -368.9048054 641.5844184 -361.54296875 633.51953125 C-355.72626078 626.67677044 -349.10325345 620.52845312 -342.72216797 614.21923828 C-334.9048054 606.5844184 -334.9048054 606.5844184 -327.54296875 598.51953125 C-321.72626078 591.67677044 -315.10325345 585.52845312 -308.72216797 579.21923828 C-300.9048054 571.5844184 -300.9048054 571.5844184 -293.54296875 563.51953125 C-287.72626078 556.67677044 -281.10325345 550.52845312 -274.72216797 544.21923828 C-266.0760091 535.66842184 -266.0760091 535.66842184 -257.93945312 526.63867188 C-252.67939955 520.76106309 -246.90312494 515.33440069 -241.29492188 509.79199219 C-233.71295495 502.38061839 -233.71295495 502.38061839 -226.57421875 494.55078125 C-220.74325308 487.70011469 -214.11417048 481.5392472 -207.72216797 475.21923828 C-199.9048054 467.5844184 -199.9048054 467.5844184 -192.54296875 459.51953125 C-186.72626078 452.67677044 -180.10325345 446.52845312 -173.72216797 440.21923828 C-165.9048054 432.5844184 -165.9048054 432.5844184 -158.54296875 424.51953125 C-152.72626078 417.67677044 -146.10325345 411.52845312 -139.72216797 405.21923828 C-131.9048054 397.5844184 -131.9048054 397.5844184 -124.54296875 389.51953125 C-118.72626078 382.67677044 -112.10325345 376.52845312 -105.72216797 370.21923828 C-97.9048054 362.5844184 -97.9048054 362.5844184 -90.54296875 354.51953125 C-84.72626078 347.67677044 -78.10325345 341.52845312 -71.72216797 335.21923828 C-63.9048054 327.5844184 -63.9048054 327.5844184 -56.54296875 319.51953125 C-50.72626078 312.67677044 -44.10325345 306.52845312 -37.72216797 300.21923828 C-29.0760091 291.66842184 -29.0760091 291.66842184 -20.93945312 282.63867188 C-15.67939955 276.76106309 -9.90312494 271.33440069 -4.29492188 265.79199219 C1.4167795 260.14132699 7.08231675 254.5329647 12.29345703 248.41015625 C15.64248306 244.60404272 19.2912156 241.08270714 22.89453125 237.51953125 C23.67376953 236.74480469 24.45300781 235.97007812 25.25585938 235.171875 C27.15395545 233.28542368 29.05436274 231.4013688 30.95703125 229.51953125 C25.94803351 223.51029683 20.54761266 218.04297505 14.96679688 212.56835938 C11.7852938 209.42346036 8.69485681 206.2687124 5.796875 202.859375 C0.38195538 196.57179987 -5.64642782 190.849659 -11.54296875 185.01953125 C-24.85827262 171.85419862 -24.85827262 171.85419862 -30.11523438 165.66992188 C-35.00237075 160.21831382 -40.33839237 155.1654881 -45.54296875 150.01953125 C-58.85845849 136.85401485 -58.85845849 136.85401485 -62.53515625 132.52734375 C-67.84315341 126.28244716 -73.84482375 120.65263048 -79.66796875 114.89453125 C-82.07979725 112.50948667 -84.48815605 110.12101392 -86.89453125 107.73046875 C-87.43735748 107.19594086 -87.98018372 106.66141296 -88.53945923 106.11068726 C-91.11670444 103.54988988 -93.52936931 100.96816116 -95.80224609 98.13134766 C-96.54168457 97.26944824 -97.28112305 96.40754883 -98.04296875 95.51953125 C-101.22175695 95.51953125 -102.53012114 97.76580133 -104.66398621 99.88830566 Z " fill="#43A046" transform="translate(962.04296875,168.48046875)"/>
</svg>
