<?xml version="1.0" standalone="no"?>
<!DOCTYPE svg PUBLIC "-//W3C//DTD SVG 20010904//EN"
 "http://www.w3.org/TR/2001/REC-SVG-20010904/DTD/svg10.dtd">
<svg version="1.0" xmlns="http://www.w3.org/2000/svg"
 width="512.000000pt" height="512.000000pt" viewBox="0 0 512.000000 512.000000"
 preserveAspectRatio="xMidYMid meet">

<g transform="translate(0.000000,512.000000) scale(0.100000,-0.100000)"
fill="#000000" stroke="none">
<path d="M1430 5106 c-125 -35 -221 -117 -279 -236 l-36 -75 -3 -884 c-3 -977
-4 -951 61 -1060 42 -69 106 -126 187 -165 l65 -31 415 -5 414 -5 163 -285
c90 -157 171 -291 180 -298 22 -16 74 -16 96 1 10 6 90 140 180 297 l163 285
414 5 415 5 66 31 c116 55 192 142 229 262 19 62 20 95 20 931 0 547 -4 882
-11 910 -35 153 -156 275 -312 317 -73 19 -2358 19 -2427 0z m2435 -183 c53
-28 99 -78 124 -133 20 -44 21 -62 21 -900 0 -559 -4 -868 -10 -892 -16 -57
-69 -119 -129 -150 l-53 -28 -420 0 c-346 0 -424 -3 -447 -14 -21 -11 -63 -77
-165 -256 -76 -133 -140 -239 -143 -236 -3 3 -67 112 -142 243 -93 163 -144
242 -161 250 -19 10 -129 13 -446 13 l-420 0 -52 26 c-29 14 -65 42 -82 62
-63 76 -61 42 -58 993 3 821 4 866 22 899 36 68 97 120 166 141 14 4 549 7
1190 6 l1165 -2 40 -22z"/>
<path d="M2502 4676 c-158 -39 -316 -164 -385 -306 -52 -106 -67 -175 -67
-307 0 -62 -1 -113 -3 -113 -2 0 -30 11 -63 24 -56 23 -59 26 -71 72 -22 87
-84 117 -142 68 l-32 -27 6 -73 c6 -64 5 -77 -14 -107 -23 -38 -27 -84 -8
-108 36 -47 100 -47 141 1 l24 29 78 -33 79 -33 5 -74 c6 -89 29 -135 85 -166
l40 -22 -40 -17 c-22 -9 -87 -36 -144 -60 l-103 -43 -24 29 c-41 48 -105 48
-141 1 -19 -24 -15 -70 8 -108 18 -29 20 -44 15 -106 -6 -77 -1 -93 41 -115
54 -29 107 5 126 82 l13 49 184 77 c151 63 186 74 188 61 11 -54 26 -83 52
-96 42 -22 548 -22 589 0 27 14 47 48 53 91 3 20 14 16 187 -56 l184 -76 14
-50 c17 -58 37 -81 79 -90 24 -5 37 0 63 22 l33 27 -7 74 c-6 64 -4 77 14 107
35 56 27 107 -21 132 -39 20 -82 10 -110 -26 l-23 -29 -120 50 c-66 28 -131
55 -145 60 -24 10 -24 10 15 32 56 31 79 77 85 166 l5 74 80 33 80 34 22 -29
c29 -37 72 -47 111 -27 48 25 58 88 21 134 -19 24 -20 36 -15 102 6 80 1 96
-42 119 -27 14 -68 7 -94 -16 -9 -8 -22 -37 -29 -64 -12 -44 -18 -52 -55 -68
-91 -40 -84 -47 -84 78 0 138 -12 195 -62 299 -73 154 -226 278 -389 317 -77
18 -214 18 -287 1z m313 -190 c152 -69 255 -224 255 -380 l0 -51 -23 40 c-64
113 -233 111 -294 -5 -38 -72 -26 -147 33 -202 80 -75 208 -56 261 38 l23 39
0 -147 0 -146 -105 -4 c-138 -4 -138 -5 -145 -146 l-5 -107 -170 0 -170 0 -5
107 c-7 141 -7 142 -145 146 l-105 4 0 146 0 147 25 -42 c56 -93 179 -109 259
-35 59 55 71 130 33 202 -61 116 -230 118 -294 5 l-23 -40 0 52 c0 149 97 301
238 370 76 37 106 43 208 39 73 -2 102 -8 149 -30z"/>
<path d="M112 3387 c-14 -15 -22 -36 -22 -58 1 -21 61 -177 154 -399 l152
-365 -174 -5 -174 -5 -24 -28 -24 -28 0 -540 0 -540 25 -24 c32 -33 61 -32
242 5 80 16 149 30 154 30 5 0 9 -302 9 -690 l0 -691 25 -24 24 -25 369 0 369
0 604 345 604 344 536 165 535 165 645 3 c631 3 645 3 701 24 117 45 205 130
249 241 18 45 23 79 23 154 1 90 -1 99 -36 170 -49 98 -95 141 -268 245 -126
75 -162 103 -270 209 -139 136 -241 209 -360 255 -166 63 -164 63 -657 67
l-453 4 0 -85 0 -86 130 0 130 0 0 -130 0 -130 -685 0 -685 0 0 130 0 130 130
0 130 0 0 85 0 85 -324 0 -323 0 -462 504 c-254 277 -468 507 -477 510 -9 3
-125 6 -258 6 -241 0 -243 0 -264 -23z m840 -572 l385 -420 -49 -3 c-47 -3
-50 -2 -99 52 -30 33 -73 66 -107 83 -56 28 -59 28 -278 31 l-222 4 -125 301
c-69 166 -133 319 -142 340 l-16 38 134 -3 134 -3 385 -420z m-612 -595 l0
-170 -85 0 -85 0 0 170 0 170 85 0 85 0 0 -170z m657 159 c63 -23 113 -95 113
-161 0 -53 -37 -115 -84 -143 -42 -25 -45 -25 -279 -25 l-237 0 0 170 0 170
229 0 c138 0 241 -4 258 -11z m450 -396 c-4 -270 -11 -306 -79 -443 l-43 -85
-362 -3 -363 -2 0 214 0 215 218 3 c215 3 217 3 270 31 102 54 174 153 188
260 l7 47 84 0 85 0 -5 -237z m343 107 l0 -130 -85 0 -85 0 0 130 0 130 85 0
85 0 0 -130z m1880 0 l0 -130 -85 0 -85 0 0 130 0 130 85 0 85 0 0 -130z m290
116 c149 -27 277 -90 385 -190 l60 -55 -197 -1 -198 0 0 -85 0 -85 298 -2 297
-3 3 -82 3 -83 -273 0 c-199 -1 -277 -4 -289 -13 -34 -26 -39 -54 -39 -236 l0
-181 -232 0 -233 1 -38 44 -38 45 72 0 c71 0 73 1 109 39 48 50 133 223 161
326 19 69 22 114 26 328 6 284 -9 257 123 233z m-3642 -377 l113 -22 -3 -101
-3 -100 -110 -23 c-60 -12 -118 -22 -127 -23 -16 0 -18 14 -18 151 0 138 1
150 18 145 9 -3 68 -15 130 -27z m3339 -83 c-9 -64 -45 -166 -82 -232 l-32
-59 -1013 -3 c-809 -2 -1011 0 -1007 10 50 114 69 176 93 306 l4 22 1022 0
1021 0 -6 -44z m1161 -93 c76 -47 119 -111 129 -191 11 -98 -40 -192 -129
-239 l-53 -28 -290 0 -290 0 -3 128 -3 127 271 0 272 0 29 29 c27 28 29 34 29
110 0 45 2 81 5 81 3 0 18 -8 33 -17z m-1684 -388 c66 -17 148 -56 189 -89
l28 -23 -498 -153 -498 -153 -592 -338 -593 -339 -75 0 -75 0 0 444 c0 422 -1
445 -19 467 -19 23 -23 24 -210 27 l-191 3 0 85 0 84 1238 0 c1071 0 1246 -2
1296 -15z m-2284 -495 l0 -170 -125 0 -125 0 0 170 0 170 125 0 125 0 0 -170z
m0 -470 l0 -130 -125 0 -125 0 0 130 0 130 125 0 125 0 0 -130z"/>
</g>
</svg>
